<?xml version="1.0" encoding="utf-8"?>
<!-- Generator: Adobe Illustrator 19.2.1, SVG Export Plug-In . SVG Version: 6.00 Build 0)  -->
<svg version="1.1" id="layer" xmlns="http://www.w3.org/2000/svg" xmlns:xlink="http://www.w3.org/1999/xlink" x="0px" y="0px"
	 viewBox="0 0 652 652" style="enable-background:new 0 0 652 652;" xml:space="preserve">
<style type="text/css">
	.st0{fill:#FF0000;}
</style>
<path class="st0" d="M456.2,323l4-26.9c-8.7-4.7-20.9-8.7-34.9-8.7c-27.6,0-42.7,14.5-42.7,33.2c0,19.8,18,25.6,30.3,29.8
	c7.4,2.7,13.3,4.7,13.3,8.7c0,3.3-3.8,6.4-11.4,6.4c-11.1,0-26.5-6.4-36.5-15.3l-4.4,29.4c10.4,7.6,25.2,12.2,41.1,12.2
	c27.4,0,43.1-13.4,43.1-32.5c0-20-16.9-26.7-30.5-31.6c-7.6-2.7-13.1-4.4-13.1-8.2c0-3.3,3.8-5.8,11.6-5.8
	C437.3,313.7,449,319,456.2,323z M106.4,290.1l-1.8,8.7c-5.3-10.4-20.9-11.4-29.2-11.4c-26.2,0-49,25.1-49,59.4
	c0,27.6,16.7,45.1,37.6,45.1c11.6,0,21.6-2.7,29.8-12.4l-2.2,9.6h4.7h28.2l15.1-99.2h-33.1V290.1z M78.9,358.8
	c-11.3,0-19.8-8.7-19.8-19.8c0-10.9,8.7-19.8,19.8-19.8c10.9,0,19.6,8.9,19.6,19.8C98.5,350,89.8,358.8,78.9,358.8z M348.9,290.1
	h-3.5l-1.8,8.7c-5.3-10.4-20.9-11.4-29.2-11.4c-26.2,0-49,25.1-49,59.4c0,27.6,16.7,45.1,37.6,45.1c11.6,0,21.6-2.7,29.8-12.4
	l-2.2,9.6h4.7h28.2l15.1-99.2h-29.6V290.1z M318,358.8c-11.3,0-19.8-8.7-19.8-19.8c0-10.9,8.7-19.8,19.8-19.8
	c10.9,0,19.6,8.9,19.6,19.8C337.8,350,328.9,358.8,318,358.8z M596.6,290.1h-3.5l-1.8,8.7c-5.3-10.4-20.9-11.4-29.2-11.4
	c-26.2,0-49,25.1-49,59.4c0,27.6,16.7,45.1,37.6,45.1c11.6,0,21.6-2.7,29.8-12.4l-2.2,9.6h4.7h28.2l15.1-99.2h-29.6V290.1z
	 M565.8,358.8c-11.3,0-19.8-8.7-19.8-19.8c0-10.9,8.7-19.8,19.8-19.8c10.9,0,19.6,8.9,19.6,19.8C585.4,350,576.7,358.8,565.8,358.8z
	 M171.2,293.7c9.1,0,16.5-7.4,16.5-16.5s-7.4-16.5-16.5-16.5s-16.5,7.4-16.5,16.5S162.1,293.7,171.2,293.7z M171,300.1
	c-7.1,0-13.4-3.3-17.6-8.2l-14.7,97.2h33.1l14.4-94.5C181.9,298.1,176.8,300.1,171,300.1z M248.4,322.8c9.1,0,16.5-7.4,16.5-16.5
	s-7.4-16.5-16.5-16.5c-9.1,0-16.5,7.4-16.5,16.5S239.3,322.8,248.4,322.8z M225.3,306.3c0-6.4,2.5-12.2,6.7-16.3H201l-15.1,99.2H219
	l10.5-69.8C226.8,315.7,225.3,311.2,225.3,306.3z M495.8,293.5c9.1,0,16.5-7.4,16.5-16.5c0-9.1-7.4-16.5-16.5-16.5
	s-16.5,7.4-16.5,16.5C479.3,286.1,486.7,293.5,495.8,293.5z M495.8,300.1c-7.3,0-13.8-3.5-18.2-8.7l-14.9,97.7h33.1l14.4-94.1
	C506.2,298.3,501.3,300.1,495.8,300.1z"/>
</svg>
