<?xml version="1.0" encoding="utf-8"?>
<!-- Generator: Adobe Illustrator 25.0.1, SVG Export Plug-In . SVG Version: 6.00 Build 0)  -->
<svg version="1.0" id="katman_1" xmlns="http://www.w3.org/2000/svg" xmlns:xlink="http://www.w3.org/1999/xlink" x="0px" y="0px"
	 viewBox="0 0 878 570" style="enable-background:new 0 0 878 570;" xml:space="preserve">
<style type="text/css">
	.st0{clip-path:url(#SVGID_2_);}
	.st1{fill:#5C0FD9;}
	.st2{fill:#FF6300;}
</style>
<g>
	<defs>
		<rect id="SVGID_1_" x="81" y="225" width="710.6" height="120"/>
	</defs>
	<clipPath id="SVGID_2_">
		<use xlink:href="#SVGID_1_"  style="overflow:visible;"/>
	</clipPath>
	<g class="st0">
		<path class="st1" d="M590.5,327.7c0,0.2,0,0.5,0.1,0.7c0.1,0.2,0.2,0.4,0.4,0.6c0.2,0.2,0.4,0.3,0.6,0.4c0.2,0.1,0.5,0.1,0.7,0.1
			h13.5v-59.9h-4.1c-2.7-0.1-5.3,0.8-7.3,2.6c-2,1.8-3.3,4.2-3.5,6.9c-3.9-7.2-11.6-10.7-20.8-10.7c-15.6,0-29.3,12.6-29.3,32.2
			c0,18.7,9.8,30.5,27.4,30.5c12.6,0,17.9-5.8,17.9-11.4c0.1-1.1-0.1-2.3-0.6-3.4c-0.4-1.1-1.1-2-2-2.8c-1.5,1.4-3.3,2.4-5.2,3.1
			c-1.9,0.7-4,1-6,0.8c-7.9,0-15-4.4-15-16.9c0-11.9,8.2-17.8,16.7-17.8c10.9,0,16.5,7.1,16.5,17.4V327.7z M686.3,255.8l28.4,73.8
			h-16.2c-0.6,0.1-1.2-0.1-1.6-0.5c-0.5-0.4-0.8-0.9-0.9-1.5l-22.5-61.4l-12,32.7h7.8c7.2,0,10,2.7,11.6,7.2l2,5.4
			c0.5,1.2,0,2-1.2,2h-25.7l-5.8,16h-14.9c-0.3,0-0.5,0-0.8-0.1c-0.2-0.1-0.4-0.3-0.6-0.5s-0.2-0.5-0.3-0.7c0-0.3,0-0.5,0.2-0.7
			l26.6-69.4c2.7-7.2,6.3-9.5,12.6-9.5h13.2c1,0,1.3,0.5,1.3,1.1c0,1.3-1.9,1.7-1.9,3.7C685.8,254.2,686,255,686.3,255.8z
			 M457.7,327.7c0,0.2,0,0.5,0.1,0.7c0.1,0.2,0.2,0.4,0.4,0.6c0.2,0.2,0.4,0.3,0.6,0.4c0.2,0.1,0.5,0.1,0.7,0.1h13.4v-59.9h-4.1
			c-2.7-0.1-5.3,0.8-7.3,2.6c-2,1.8-3.3,4.2-3.5,6.9c-3.9-7.2-11.6-10.7-20.8-10.7c-15.8,0-29.3,12.6-29.3,32.2
			c0,18.7,9.8,30.5,27.4,30.5c12.6,0,17.9-5.8,17.9-11.4c0.1-1.1-0.1-2.3-0.6-3.4c-0.4-1.1-1.1-2-2-2.8c-1.5,1.4-3.3,2.4-5.2,3.1
			c-1.9,0.7-4,1-6,0.8c-7.9,0-15-4.4-15-16.9c0-11.9,8.2-17.8,16.7-17.8c10.9,0,16.5,7.1,16.5,17.4V327.7z M387,271.6
			c0.4-0.7,1.1-1.4,1.8-1.7c0.8-0.4,1.6-0.5,2.5-0.4h17.4L383,298.2l26.3,31.4h-17.9c-0.9,0.1-1.7,0-2.5-0.4c-0.8-0.4-1.4-1-1.8-1.8
			l-19.7-24.1v26.3H354c-0.2,0-0.5,0-0.7-0.1c-0.2-0.1-0.4-0.2-0.6-0.4c-0.2-0.2-0.3-0.4-0.4-0.6c-0.1-0.2-0.1-0.5-0.1-0.7v-71.6
			c0-3,1.2-5.8,3.3-7.9s4.9-3.3,7.9-3.3h4.1v48.8L387,271.6z M314.9,255.8l28.4,73.8h-16.1c-0.6,0.1-1.2-0.1-1.6-0.5
			c-0.5-0.4-0.8-0.9-0.9-1.5l-22.5-61.5l-12,32.7h7.8c7.2,0,10,2.7,11.6,7.2l2.1,5.4c0.5,1.2,0,2-1.2,2h-25.7l-5.8,16h-14.9
			c-0.3,0-0.5,0-0.8-0.1c-0.2-0.1-0.4-0.3-0.6-0.5c-0.1-0.2-0.2-0.5-0.3-0.7c0-0.3,0-0.5,0.1-0.7l26.6-69.4
			c2.7-7.2,6.3-9.5,12.6-9.5h13.2c0.9,0,1.3,0.5,1.3,1.1c0,1.3-1.9,1.7-1.9,3.7C314.5,254.2,314.7,255,314.9,255.8L314.9,255.8z
			 M751.7,280.7v47c0,0.2,0,0.5,0.1,0.7c0.1,0.2,0.2,0.4,0.4,0.6c0.2,0.2,0.4,0.3,0.6,0.4c0.2,0.1,0.5,0.1,0.7,0.1h13.4v-29.9
			c-0.1-2.1,0.2-4.2,0.9-6.2c0.7-2,1.8-3.8,3.3-5.4c1.5-1.5,3.2-2.8,5.2-3.6s4-1.3,6.2-1.3c2.3-0.1,4.7,0.2,6.8,1.1
			c1.3-2.6,2.1-5.5,2.3-8.5c0-3.6-1.9-7-8.4-7c-6.5,0-12.6,4.1-16.2,12.6v-11.9h-4.1c-1.5-0.1-3,0.1-4.4,0.7
			c-1.4,0.5-2.7,1.4-3.7,2.4c-1.1,1.1-1.9,2.3-2.4,3.7S751.6,279.1,751.7,280.7L751.7,280.7z M723.6,280.7c0-3,1.2-5.8,3.3-7.9
			c2.1-2.1,4.9-3.3,7.9-3.3h4.1v59.9h-13.4c-0.2,0-0.5,0-0.7-0.1c-0.2-0.1-0.4-0.2-0.6-0.4c-0.2-0.2-0.3-0.4-0.4-0.6
			c-0.1-0.2-0.1-0.5-0.1-0.7V280.7z M481.6,318.8c0,7.9,13.9,12,25.2,12c14.8,0,26.9-7,26.9-19.5c0-9.2-4.7-14.7-16-17.4l-12.6-3.2
			c-3.2-0.9-5-2.2-5-5.2c0-3,3-4.7,8.8-4.7c6.7,0.1,13.3,2.1,18.9,5.9c2.2-2.1,3.6-5,4-8c0-6.7-11-10.7-23.2-10.7
			c-13,0-24.9,6.5-24.9,18.9c0,9.5,4.7,15.2,15.3,17.6l13,3.2c3.3,0.7,5.3,2.1,5.3,4.9c0,3.5-2.9,5.3-9.8,5.3
			c-7.9-0.3-15.6-2.8-22.1-7.3C483.1,312.8,481.8,315.7,481.6,318.8z M731.4,241.7c-2.5,0-4.9,1-6.7,2.8c-1.8,1.8-2.8,4.2-2.8,6.7
			s1,4.9,2.8,6.7c1.8,1.8,4.2,2.8,6.7,2.8c1.3,0,2.5-0.2,3.7-0.6c1.2-0.5,2.3-1.1,3.2-2s1.6-1.9,2.1-3.1s0.7-2.4,0.7-3.7
			c0-1.3-0.3-2.5-0.7-3.7s-1.2-2.2-2.1-3.1s-2-1.6-3.2-2C733.9,241.9,732.6,241.6,731.4,241.7z"/>
		<path class="st2" d="M81.5,342l44.2-74.9c0.7-1.2,1.2-1.7,1.9-1.7c0.7,0,1.2,0.6,1.8,1.6c5.5,9.2,8.4,19.7,8.4,30.4
			c0,28.1-22.1,47.5-53.9,47.5c-0.6,0-2.9,0-2.9-1.5C81,342.9,81.2,342.4,81.5,342z"/>
		<path class="st2" d="M182.7,272.6l38.7,69.1c1,1.7,0.4,3.2-2.1,3.2c-28.4,0-41.6-10.7-52.2-29.7l-29.8-53.3
			c-1.4-2.1-2.3-4.6-2.4-7.2c0.3-3.2,1.4-6.2,3.2-8.8l3.8-6.7c5.3-9.8,11.1-14.2,24.8-14.2h9.7c1.5,0,1.6,1.1,0.9,1.9
			c-3.4,4-5.1,9.2-4.9,14.4C172.3,248.6,174.9,258.7,182.7,272.6z"/>
	</g>
</g>
</svg>
